<?xml version="1.0" encoding="UTF-8"?>
<svg width="873px" height="873px" viewBox="0 0 873 873" version="1.1" xmlns="http://www.w3.org/2000/svg" xmlns:xlink="http://www.w3.org/1999/xlink">
    <!-- Generator: Sketch 58 (84663) - https://sketch.com -->
    <title>icon_blueprint</title>
    <desc>Created with Sketch.</desc>
    <g id="icon_blueprint" stroke="none" stroke-width="1" fill="none" fill-rule="evenodd">
        <g id="icons8-blueprint" transform="translate(157.000000, 132.000000)" fill-rule="nonzero">
            <polygon id="Path" fill="#009BDD" points="0 0 548 0 548 624 0 624"></polygon>
            <path d="M94.8571429,19 L94.857,75 L151.428,75 L151.428571,19 L170.285714,19 L170.285,75 L226.857,75 L226.857143,19 L245.714286,19 L245.714,75 L302.285,75 L302.285714,19 L321.142857,19 L321.142,75 L377.714,75 L377.714286,19 L396.571429,19 L396.571,75 L453.142,75 L453.142857,19 L472,19 L471.999,75 L529,75 L529,93.92 L471.999,93.919 L471.999,150.679 L529,150.68 L529,169.6 L471.999,169.6 L471.999,226.359 L529,226.36 L529,245.28 L471.999,245.279 L471.999,302.04 L529,302.04 L529,320.96 L471.999,320.96 L471.999,377.719 L529,377.72 L529,396.64 L471.999,396.64 L471.999,453.4 L529,453.4 L529,472.32 L471.999,472.32 L471.999,529.08 L529,529.08 L529,548 L471.999,548 L472,605 L453.142857,605 L453.142,548 L396.571,548 L396.571429,605 L377.714286,605 L377.714,548 L321.142,548 L321.142857,605 L302.285714,605 L302.285,548 L245.714,548 L245.714286,605 L226.857143,605 L226.857,548 L170.285,548 L170.285714,605 L151.428571,605 L151.428,548 L94.857,548 L94.8571429,605 L76,605 L76,548 L19,548 L19,529.08 L76,529.08 L76,472.32 L19,472.32 L19,453.4 L76,453.4 L76,396.64 L19,396.64 L19,377.72 L76,377.719 L76,320.96 L19,320.96 L19,302.04 L76,302.04 L76,245.279 L19,245.28 L19,226.36 L76,226.359 L76,169.6 L19,169.6 L19,150.68 L76,150.679 L76,93.919 L19,93.92 L19,75 L76,75 L76,19 L94.8571429,19 Z M151.428,472.32 L94.857,472.32 L94.857,529.08 L151.428,529.08 L151.428,472.32 Z M226.857,472.32 L170.285,472.32 L170.285,529.08 L226.857,529.08 L226.857,472.32 Z M302.285,472.32 L245.714,472.32 L245.714,529.08 L302.285,529.08 L302.285,472.32 Z M377.714,472.32 L321.142,472.32 L321.142,529.08 L377.714,529.08 L377.714,472.32 Z M453.142,472.32 L396.571,472.32 L396.571,529.08 L453.142,529.08 L453.142,472.32 Z M151.428,396.64 L94.857,396.64 L94.857,453.4 L151.428,453.4 L151.428,396.64 Z M226.857,396.64 L170.285,396.64 L170.285,453.4 L226.857,453.4 L226.857,396.64 Z M302.285,396.64 L245.714,396.64 L245.714,453.4 L302.285,453.4 L302.285,396.64 Z M377.714,396.64 L321.142,396.64 L321.142,453.4 L377.714,453.4 L377.714,396.64 Z M453.142,396.64 L396.571,396.64 L396.571,453.4 L453.142,453.4 L453.142,396.64 Z M151.428,320.96 L94.857,320.96 L94.857,377.719 L151.428,377.719 L151.428,320.96 Z M226.857,320.96 L170.285,320.96 L170.285,377.719 L226.857,377.719 L226.857,320.96 Z M302.285,320.96 L245.714,320.96 L245.714,377.719 L302.285,377.719 L302.285,320.96 Z M377.714,320.96 L321.142,320.96 L321.142,377.719 L377.714,377.719 L377.714,320.96 Z M453.142,320.96 L396.571,320.96 L396.571,377.719 L453.142,377.719 L453.142,320.96 Z M151.428,245.279 L94.857,245.279 L94.857,302.04 L151.428,302.04 L151.428,245.279 Z M226.857,245.279 L170.285,245.279 L170.285,302.04 L226.857,302.04 L226.857,245.279 Z M302.285,245.279 L245.714,245.279 L245.714,302.04 L302.285,302.04 L302.285,245.279 Z M377.714,245.279 L321.142,245.279 L321.142,302.04 L377.714,302.04 L377.714,245.279 Z M453.142,245.279 L396.571,245.279 L396.571,302.04 L453.142,302.04 L453.142,245.279 Z M151.428,169.6 L94.857,169.6 L94.857,226.359 L151.428,226.359 L151.428,169.6 Z M226.857,169.6 L170.285,169.6 L170.285,226.359 L226.857,226.359 L226.857,169.6 Z M302.285,169.6 L245.714,169.6 L245.714,226.359 L302.285,226.359 L302.285,169.6 Z M377.714,169.6 L321.142,169.6 L321.142,226.359 L377.714,226.359 L377.714,169.6 Z M453.142,169.6 L396.571,169.6 L396.571,226.359 L453.142,226.359 L453.142,169.6 Z M151.428,93.919 L94.857,93.919 L94.857,150.679 L151.428,150.679 L151.428,93.919 Z M226.857,93.919 L170.285,93.919 L170.285,150.679 L226.857,150.679 L226.857,93.919 Z M302.285,93.919 L245.714,93.919 L245.714,150.679 L302.285,150.679 L302.285,93.919 Z M377.714,93.919 L321.142,93.919 L321.142,150.679 L377.714,150.679 L377.714,93.919 Z M453.142,93.919 L396.571,93.919 L396.571,150.679 L453.142,150.679 L453.142,93.919 Z" id="Combined-Shape" fill="#AFDCEE" opacity="0.333984375"></path>
            <g id="Group" transform="translate(135.000000, 154.000000)" fill="#0076E3" fill-opacity="0.306900131">
                <path d="M56.8415725,469.148753 L0.165297338,412.480819 L404.720549,7.98511021 L412.541875,0.164935392 L412.541875,469.148753 L223.620958,469.148753 L56.8415725,469.148753 Z" id="Combined-Shape"></path>
            </g>
            <polygon id="Path" fill="#FFD95E" transform="translate(434.573666, 434.573667) rotate(-45.001000) translate(-434.573666, -434.573667) " points="167.363437 354.412487 701.783895 354.412487 701.783895 514.734846 167.363437 514.734846"></polygon>
            <g id="Group" transform="translate(241.000000, 222.000000)" fill="#EBB572">
                <polygon id="Path" transform="translate(295.463495, 30.598497) rotate(45.001000) translate(-295.463495, -30.598497) " points="271.22062 11.68092 319.70637 11.68092 319.70637 49.5160743 271.22062 49.5160743"></polygon>
                <polygon id="Path" transform="translate(243.421240, 110.998200) rotate(134.999000) translate(-243.421240, -110.998200) " points="224.503663 66.6837758 262.338817 66.6837758 262.338817 155.312625 224.503663 155.312625"></polygon>
                <polygon id="Path" transform="translate(110.998200, 243.421240) rotate(134.999000) translate(-110.998200, -243.421240) " points="92.0806229 199.106816 129.915777 199.106816 129.915777 287.735665 92.0806229 287.735665"></polygon>
                <polygon id="Path" transform="translate(30.598497, 295.444578) rotate(134.999000) translate(-30.598497, -295.444578) " points="11.68092 271.201702 49.5160743 271.201702 49.5160743 319.687453 11.68092 319.687453"></polygon>
                <polygon id="Path" transform="translate(163.021537, 163.021537) rotate(134.999000) translate(-163.021537, -163.021537) " points="144.10396 138.778662 181.939114 138.778662 181.939114 187.264413 144.10396 187.264413"></polygon>
            </g>
            <path d="M163.0461,538.6461 L152,549.6922 L152,580.9078 L163.0461,591.9539 L170.85,599.7578 L170.85,546.45 L208.55,546.45 L227.4,527.6 L174.0922,527.6 L163.0461,538.6461 Z M378.2,603 L397.05,603 L397.05,584.15 L378.2,603 Z M529,471.05 L529,452.2 L510.15,471.05 L529,471.05 Z M472.45,603 L472.45,546.45 L529,546.45 L529,527.6 L472.45,527.6 L472.45,508.75 L434.75,546.45 L453.6,546.45 L453.6,603 L472.45,603 Z M227.4,474.2922 L227.4,527.6 L246.25,508.75 L246.25,471.05 L283.95,471.05 L302.8,452.2 L249.4922,452.2 L227.4,474.2922 Z M378.2,323.4922 L378.2,376.8 L397.05,357.95 L397.05,320.25 L434.75,320.25 L453.6,301.4 L400.2922,301.4 L378.2,323.4922 Z M302.8,398.8922 L302.8,452.2 L321.65,433.35 L321.65,395.65 L359.35,395.65 L378.2,376.8 L324.8922,376.8 L302.8,398.8922 Z M453.6,248.0922 L453.6,301.4 L472.45,282.55 L472.45,244.85 L510.15,244.85 L529,226 L475.6922,226 L453.6,248.0922 Z" id="Shape" fill="#0076E3"></path>
        </g>
    </g>
</svg>