<?xml version="1.0" encoding="UTF-8"?>
<svg width="873px" height="873px" viewBox="0 0 873 873" version="1.1" xmlns="http://www.w3.org/2000/svg" xmlns:xlink="http://www.w3.org/1999/xlink">
    <!-- Generator: Sketch 58 (84663) - https://sketch.com -->
    <title>icon_architecture</title>
    <desc>Created with Sketch.</desc>
    <defs>
        <linearGradient x1="61.2462017%" y1="-22.7521639%" x2="44.1655742%" y2="111.313818%" id="linearGradient-1">
            <stop stop-color="#E8F4FF" offset="0%"></stop>
            <stop stop-color="#C5D6E6" offset="100%"></stop>
        </linearGradient>
        <linearGradient x1="50%" y1="0%" x2="50%" y2="100%" id="linearGradient-2">
            <stop stop-color="#6BAEEE" offset="0%"></stop>
            <stop stop-color="#3976D9" offset="100%"></stop>
        </linearGradient>
    </defs>
    <g id="icon_architecture" stroke="none" stroke-width="1" fill="none" fill-rule="evenodd">
        <g id="Group" transform="translate(288.500000, 78.000000)" fill-rule="nonzero">
            <g id="icons8-experiment-copy" transform="translate(0.500000, 0.000000)">
                <path d="M262.222222,0 L32.7777778,0 C14.75,0 0,14.6863636 0,32.6363636 C0,50.5863636 14.75,65.2727273 32.7777778,65.2727273 L32.7777778,603.772727 C32.7777778,667.413636 85.2222222,718 147.5,718 C209.777778,718 262.222222,667.413636 262.222222,603.772727 L262.222222,65.2727273 C280.25,65.2727273 295,50.5863636 295,32.6363636 C295,14.6863636 280.25,0 262.222222,0 Z" id="Path" fill="url(#linearGradient-1)"></path>
                <path d="M64.7302158,603.863485 C64.7302158,649.50357 100.915468,685.363636 146.969424,685.363636 C193.023381,685.363636 229.208633,649.50357 229.208633,603.863485 L229.208633,212.662757 L64.7302158,212.662757 L64.7302158,603.863485 Z" id="Path" fill="url(#linearGradient-2)"></path>
                <path d="M97.6258993,482.73331 C97.6258993,469.653993 109.139388,458.209591 122.297662,458.209591 C135.455935,458.209591 146.969424,469.653993 146.969424,482.73331 C146.969424,495.812627 135.455935,507.257029 122.297662,507.257029 C109.139388,507.257029 97.6258993,495.812627 97.6258993,482.73331 Z M163.417266,605.351906 C173.285971,605.351906 179.865108,598.812248 179.865108,589.00276 C179.865108,579.193272 173.285971,572.653614 163.417266,572.653614 C153.548561,572.653614 146.969424,579.193272 146.969424,589.00276 C146.969424,598.812248 153.548561,605.351906 163.417266,605.351906 Z M155.193345,409.162153 C178.220324,409.162153 196.31295,391.178092 196.31295,368.289288 C196.31295,345.400483 178.220324,327.416422 155.193345,327.416422 C132.166367,327.416422 114.073741,345.400483 114.073741,368.289288 C114.073741,391.178092 132.166367,409.162153 155.193345,409.162153 Z" id="Shape" fill="#FFFFFF" opacity="0.509416853"></path>
                <polygon id="Path" fill="#C5D6E6" points="31.8345324 65.2727273 261.043165 65.2727273 261.043165 97.9090909 31.8345324 97.9090909"></polygon>
            </g>
        </g>
    </g>
</svg>