<?xml version="1.0" encoding="UTF-8"?>
<svg width="873px" height="873px" viewBox="0 0 873 873" version="1.1" xmlns="http://www.w3.org/2000/svg" xmlns:xlink="http://www.w3.org/1999/xlink">
    <!-- Generator: Sketch 58 (84663) - https://sketch.com -->
    <title>icon_footsteps</title>
    <desc>Created with Sketch.</desc>
    <g id="icon_footsteps" stroke="none" stroke-width="1" fill="none" fill-rule="evenodd">
        <g id="icons8-shoes" transform="translate(174.000000, 146.000000)" fill-rule="nonzero">
            <path d="M28.2225474,349.098937 L174.559809,349.098937 C175.417367,346.056601 217.55401,261.759137 217.161568,174.44845 C216.638312,57.9662691 159.472594,-0.260264581 112.93188,0.000874463784 C52.7719747,0.322000755 -9.40828004,94.9255613 1.18765398,243.272212 C4.19637598,285.748469 27.0742911,346.114828 28.2225474,349.098937 Z M187.481325,490.123602 C194.835979,533.735276 172.641204,573.533111 129.138281,580.913325 L129.138281,580.913325 C85.6498934,588.293538 46.5074376,557.229682 39.1382489,513.603452 C39.1382489,513.603452 28.8911522,436.729871 28.8911522,407.616604 L174.152832,407.616604 L187.481325,490.123602 Z M494.748877,349.098937 L348.324406,349.098937 C347.466847,346.056601 305.301135,261.759137 305.693577,174.44845 C306.216833,57.9662691 363.44069,-0.260264581 409.995939,0.000874463784 C470.199449,0.322000755 532.408774,94.9255613 521.81284,243.286769 C518.789583,285.748469 495.897133,346.114828 494.748877,349.098937 Z M335.620913,490.123602 C328.251724,533.735276 350.461034,573.533111 393.993027,580.913325 L393.993027,580.913325 C437.510484,588.293538 476.667475,557.229682 484.051198,513.603452 C484.051198,513.603452 494.25469,436.729871 494.25469,407.616604 L348.905801,407.616604 L335.620913,490.123602 Z" id="Shape" fill="#D99980"></path>
            <g id="Group" fill="#A36046">
                <path d="M187.953149,490.544561 L174.628785,408.010526 L29.4120994,408.010526 C29.4120994,437.133333 39.6560221,514.032105 39.6560221,514.032105 C45.1339779,546.489474 68.280884,571.695263 97.6032044,579.602105 C81.430884,566.700702 68.9928729,537.73807 65.7090055,518.284035 C63.2969613,504.319649 63.1807182,462.135263 60.390884,436.827544 L150.522873,436.827544 L164.937017,511.003333 C168.07558,529.64193 162.80105,559.754912 147.456961,575.787018 C178.915249,561.837193 194.215746,527.67614 187.953149,490.544561 Z M162.859171,349.473684 L177.389558,335.203509 L156.843591,314.613684 L136.326685,335.203509 L150.828011,349.473684 L162.859171,349.473684 Z M81.6343094,349.473684 L96.1646961,335.203509 L75.6187293,314.613684 L55.0872928,335.203509 L69.6176796,349.473684 L81.6343094,349.473684 Z M178.261381,137.517895 L192.021657,122.854561 C193.213149,129.086842 193.285801,147.070175 194.201215,153.797544 L178.261381,137.517895 Z" id="Shape"></path>
                <polygon id="Path" transform="translate(75.618729, 96.338246) rotate(-134.999000) translate(-75.618729, -96.338246) " points="61.0573252 81.7768426 90.1491166 81.8078594 90.1801333 110.899649 61.088342 110.868632"></polygon>
                <path d="M192.413978,279.418772 L197.717569,283.321228 C197.252597,291.810526 192.297735,292.553158 186.238564,314.613684 L171.897072,299.994035 L192.413978,279.418772 Z M192.413978,198.646667 L197.485083,203.55386 C198.051768,215.377719 197.397901,220.284912 197.557735,232.982456 L192.413978,239.826316 L171.897072,219.236491 L192.413978,198.646667 Z" id="Shape"></path>
                <polygon id="Path" transform="translate(157.744475, 178.712105) rotate(134.959000) translate(-157.744475, -178.712105) " points="143.228612 164.181725 172.291355 164.150739 172.260338 193.242485 143.197595 193.273471"></polygon>
                <path d="M34.5849171,158.122281 L29.0924309,152.122982 C29.0924309,139.075965 30.6181215,127.747193 36.7063536,118.398772 L55.1163536,137.517895 L34.5849171,158.122281 Z" id="Path"></path>
                <polygon id="Path" transform="translate(75.643549, 178.736948) rotate(134.918000) translate(-75.643549, -178.736948) " points="61.1276636 164.20659 90.1904508 164.175605 90.1594342 193.267306 61.096647 193.298292"></polygon>
                <polygon id="Path" transform="translate(116.675580, 137.513623) rotate(45.020000) translate(-116.675580, -137.513623) " points="102.121446 122.959511 131.198712 122.990512 131.229714 152.067735 102.152448 152.036733"></polygon>
                <polygon id="Path" transform="translate(116.706397, 55.148290) rotate(134.943000) translate(-116.706397, -55.148290) " points="102.175964 40.6324797 131.267816 40.601463 131.23683 69.6640998 102.144978 69.6951165"></polygon>
                <path d="M157.729945,116.92807 L137.213039,96.3382456 L157.729945,75.7338596 L178.23232,96.2945614 L178.23232,96.3382456 L157.729945,116.92807 Z M21.5366298,294.882982 L34.5558564,281.675789 L55.1018232,302.280175 L34.5558564,322.87 L21.5366298,309.415263 C20.7229282,302.163684 22.0161326,302.076316 21.5366298,294.882982 Z" id="Shape"></path>
                <polygon id="Path" transform="translate(115.363593, 299.998300) rotate(-45.001000) translate(-115.363593, -299.998300) " points="100.83319 285.48246 129.924981 285.451443 129.893995 314.514141 100.802204 314.545157"></polygon>
                <polygon id="Path" transform="translate(116.667517, 219.879599) rotate(134.980000) translate(-116.667517, -219.879599) " points="102.144385 205.356488 131.221651 205.325487 131.19065 234.40271 102.113384 234.433711"></polygon>
                <path d="M21.5366298,227.259825 C21.9289503,220.241228 21.5366298,218.013333 22.219558,211.184035 L34.5703867,199.30193 L55.1163536,219.891754 L34.5703867,240.481579 L21.5366298,227.259825 Z" id="Path"></path>
                <polygon id="Path" transform="translate(75.586918, 261.046934) rotate(134.980000) translate(-75.586918, -261.046934) " points="61.0637937 246.516551 90.1410597 246.485549 90.1100429 275.577318 61.0327769 275.608319"></polygon>
                <polygon id="Path" transform="translate(157.735071, 261.070517) rotate(-45.041000) translate(-157.735071, -261.070517) " points="143.2192 246.547409 172.281943 246.516424 172.250942 275.593624 143.188199 275.624609"></polygon>
                <path d="M1.57187845,243.539474 C-9.00624309,95.2898246 53.2419337,0 117.146575,0 C164.820773,0 218.336188,72.8070175 218.336188,174.765965 C218.336188,262.105263 179.554586,339.804912 174.628785,349.764912 L175.137348,349.764912 C184.364144,324.369825 194.215746,220.88193 194.215746,175.945439 C194.215746,87.3684211 145.582541,29.4577193 115.243094,29.4577193 C62.3524862,29.4577193 3.30099448,190.885439 28.6710497,349.473684 C28.6710497,349.473684 4.66685083,287.07807 1.57187845,243.539474 Z M336.046851,490.544561 L349.327624,408.010526 L494.631492,408.010526 C494.631492,437.133333 484.43116,514.032105 484.43116,514.032105 C478.953204,546.489474 455.791768,571.695263 426.440387,579.602105 C442.627238,566.700702 455.079779,537.73807 458.363646,518.284035 C460.775691,504.319649 460.848343,462.135263 463.638177,436.827544 L373.448066,436.827544 L359.077514,511.003333 C355.92442,529.64193 361.213481,559.754912 376.557569,575.787018 C345.084751,561.837193 329.769724,527.67614 336.046851,490.544561 Z M361.111768,349.473684 L346.566851,335.203509 L367.127348,314.613684 L387.658785,335.203509 L373.142928,349.473684 L361.111768,349.473684 Z M442.380221,349.473684 L427.849834,335.203509 L448.395801,314.613684 L468.941768,335.203509 L454.411381,349.473684 L442.380221,349.473684 Z M345.695028,137.517895 L331.920221,122.854561 C330.728729,129.086842 330.656077,147.070175 329.740663,153.797544 L345.695028,137.517895 Z" id="Shape"></path>
                <polygon id="Path" transform="translate(448.385526, 96.342511) rotate(-45.001000) translate(-448.385526, -96.342511) " points="433.855139 81.8121245 462.94693 81.7811078 462.915914 110.872897 433.824122 110.903914"></polygon>
                <path d="M331.527901,279.418772 L326.224309,283.321228 C326.689282,291.810526 331.644144,292.553158 337.717845,314.613684 L352.059337,299.994035 L331.527901,279.418772 Z M331.527901,198.646667 L326.456796,203.55386 C325.89011,215.377719 326.543978,220.284912 326.384144,232.982456 L331.527901,239.826316 L352.059337,219.236491 L331.527901,198.646667 Z" id="Shape"></path>
                <polygon id="Path" transform="translate(366.212803, 178.733587) rotate(45.020000) translate(-366.212803, -178.733587) " points="351.658661 164.172202 380.735927 164.203203 380.766944 193.294972 351.689678 193.263971"></polygon>
                <path d="M489.458674,158.122281 L494.95116,152.122982 C494.95116,139.075965 493.42547,127.747193 487.337238,118.398772 L468.912707,137.517895 L489.458674,158.122281 Z" id="Path"></path>
                <polygon id="Path" transform="translate(448.419771, 178.694889) rotate(45.057000) translate(-448.419771, -178.694889) " points="433.865609 164.133524 462.942915 164.164525 462.973932 193.256254 433.896626 193.225253"></polygon>
                <polygon id="Path" transform="translate(407.303867, 137.517895) rotate(134.999000) translate(-407.303867, -137.517895) " points="392.77348 122.987509 421.865271 122.956492 421.834255 152.048281 392.742463 152.079298"></polygon>
                <polygon id="Path" transform="translate(407.293578, 55.164621) rotate(45.041000) translate(-407.293578, -55.164621) " points="392.724887 40.6105045 421.831268 40.6415368 421.862269 69.7187368 392.755889 69.6877045"></polygon>
                <path d="M366.240994,116.92807 L386.772431,96.3382456 L366.240994,75.7338596 L345.724088,96.2945614 L345.724088,96.3382456 L366.240994,116.92807 Z M502.521492,294.882982 L489.487735,281.675789 L468.927238,302.280175 L489.487735,322.87 L502.521492,309.415263 C503.335193,302.163684 502.041989,302.076316 502.521492,294.882982 Z" id="Shape"></path>
                <polygon id="Path" transform="translate(408.581459, 299.946339) rotate(-135.020000) translate(-408.581459, -299.946339) " points="394.020074 285.392198 423.111843 285.423215 423.142844 314.500481 394.051075 314.469464"></polygon>
                <polygon id="Path" transform="translate(407.293593, 219.902051) rotate(45.001000) translate(-407.293593, -219.902051) " points="392.732189 205.340648 421.82398 205.371664 421.854997 234.463454 392.763205 234.432437"></polygon>
                <path d="M502.521492,227.259825 C502.129171,220.241228 502.521492,218.013333 501.838564,211.184035 L489.473204,199.30193 L468.912707,219.891754 L489.473204,240.481579 L502.521492,227.259825 Z" id="Path"></path>
                <polygon id="Path" transform="translate(448.400057, 261.075668) rotate(45.001000) translate(-448.400057, -261.075668) " points="433.838653 246.514265 462.930444 246.545282 462.961461 275.637071 433.86967 275.606054"></polygon>
                <polygon id="Path" transform="translate(366.198243, 261.015969) rotate(-134.980000) translate(-366.198243, -261.015969) " points="351.644102 246.454584 380.721368 246.485585 380.752385 275.577354 351.675119 275.546352"></polygon>
                <path d="M522.500773,243.539474 C533.078895,95.2898246 470.787127,0 406.853425,0 C356.897956,0 305.59116,72.8070175 305.59116,174.765965 C305.59116,262.105263 344.401823,339.804912 349.327624,349.764912 L348.819061,349.764912 C339.592265,324.369825 329.740663,220.88193 329.740663,175.945439 C329.740663,87.3684211 378.402928,29.4577193 408.756906,29.4577193 C461.691105,29.4577193 520.771657,190.885439 495.372541,349.473684 C495.372541,349.473684 519.391271,287.07807 522.500773,243.539474 Z" id="Path"></path>
            </g>
        </g>
    </g>
</svg>