<?xml version="1.0" encoding="UTF-8"?>
<svg width="873px" height="873px" viewBox="0 0 873 873" version="1.1" xmlns="http://www.w3.org/2000/svg" xmlns:xlink="http://www.w3.org/1999/xlink">
    <!-- Generator: Sketch 58 (84663) - https://sketch.com -->
    <title>icon_strength-3</title>
    <desc>Created with Sketch.</desc>
    <g id="icon_strength-3" stroke="none" stroke-width="1" fill="none" fill-rule="evenodd">
        <g id="icons8-muscle" transform="translate(124.000000, 118.000000)" fill-rule="nonzero">
            <path d="M416.576807,350.9 C492.411162,293.75115 573.544824,275.1375 624.079779,366.85 C624.079779,510.4 642.707161,638 512.347409,638 C480.423875,590.15 496.385642,574.2 464.462108,574.2 C432.538574,574.2 427.62235,602.1763 336.767972,606.1 C282.178728,608.4606 209.073835,590.15 145.226767,542.3 C100.62959,508.8688 17.5326303,430.65 1.57086322,398.75 C-4.6701877,386.29305 7.60441117,323.92855 39.8471806,251.96215 C88.6582643,143.05555 128.754223,97.82135 158.17176,63.8 C203.503178,17.91185 240.997369,0 256.959136,0 C272.920903,0 369.074588,16.1095 384.653273,31.9 C400.61504,47.85 396.879986,56.25565 400.61504,79.75 C404.382017,103.24435 396.800178,112.7984 388.899103,127.23315 C386.153679,132.2255 377.422592,142.16235 369.776906,135.5431 C365.403382,143.27885 348.483909,148.22335 342.194972,137.489 C336.177386,147.42585 319.241951,143.0077 315.427089,135.87805 C309.409503,145.28855 296.304892,134.79345 292.186756,130.64645 C289.201906,127.6319 285.403005,123.1659 282.928931,118.46065 C282.370269,117.9024 275.203436,99.89485 282.849122,98.20415 C266.727738,101.761 260.183413,98.20415 248.850559,109.68815 C237.517704,121.1562 207.334002,147.6332 209.073835,200.66695 C211.037132,261.261 193.112068,303.06595 177.150301,319.01595 C177.150301,319.01595 193.112068,319.01595 209.073835,319.01595 C250.973474,288.10485 320.806205,255.2 416.576807,350.9 Z" id="Path" fill="#D99980"></path>
            <path d="M191.599641,33 C160.215822,65.4192299 148.013665,116.479916 113.371678,198.636272 C69.4503021,302.782849 21.7596736,351.419667 113.036278,437.339396 C150.690568,472.77712 195.971877,539.609142 290.703117,566.515359 C317.414412,571.938137 332.731233,572.435226 332.731233,572.435226 C416.885962,570.789574 460.038132,535.067081 465.583938,482.203009 C449.57294,402.815546 416.464286,350.588834 416.464286,350.588834 C492.310607,293.469208 573.457071,274.865077 624,366.530677 C566.145878,354.976119 517.382687,379.365682 488.846177,424.014695 C467.968971,497.730645 557.615091,516.050526 584,616.145075 C567.472935,631.292525 543.997171,638 512.026782,638 C480.152018,590.316528 496.0894,574.422037 464.214636,574.422037 C432.339872,574.422037 427.431158,602.300974 336.715579,606.211019 C282.209732,608.563403 209.216522,590.316528 145.466994,542.633056 C141.237977,539.46983 137.173245,535.904802 133.125651,532.015554 C87.0023251,495.065607 16.1816932,427.14168 1.57181216,397.967494 C-4.67300891,385.513279 7.60900491,323.162473 39.8712519,251.211875 C88.7118218,142.329188 128.832002,97.1049209 158.26731,63.0910412 C164.096874,57.2067836 169.766724,51.8168673 175.292832,46.84156 C175.931688,46.2834326 176.506659,45.8369307 177.129544,45.2788033 C182.06471,40.8775699 186.93599,36.7314805 191.599641,33 Z M346.413,299.144504 C346.508786,299.272039 346.6365,299.447399 346.6365,299.447399 C330.672214,299.447399 288.75,286.821459 256.821429,350.588834 C211.594607,435.622627 338.638393,512 338.638393,512 C178.616384,462.679921 177.016164,321.565312 177.000162,318.747952 L177,318.705146 L208.928571,318.705146 C240.825214,295.190927 287.424964,272.202789 346.413,299.144504 Z" id="Combined-Shape" fill="#C38D78"></path>
        </g>
    </g>
</svg>