<?xml version="1.0" encoding="UTF-8"?>
<svg width="873px" height="873px" viewBox="0 0 873 873" version="1.1" xmlns="http://www.w3.org/2000/svg" xmlns:xlink="http://www.w3.org/1999/xlink">
    <!-- Generator: Sketch 58 (84663) - https://sketch.com -->
    <title>icon_diversity</title>
    <desc>Created with Sketch.</desc>
    <defs>
        <linearGradient x1="50%" y1="0%" x2="50%" y2="100%" id="linearGradient-1">
            <stop stop-color="#6BAEEE" offset="0%"></stop>
            <stop stop-color="#3976D9" offset="100%"></stop>
        </linearGradient>
    </defs>
    <g id="icon_diversity" stroke="none" stroke-width="1" fill="none" fill-rule="evenodd">
        <g id="icons8-male-and-female" transform="translate(231.000000, 57.000000)" fill="url(#linearGradient-1)" fill-rule="nonzero">
            <path d="M444.026701,0 L266.593454,0 L266.593454,70.7272727 L396.119724,70.7272727 L275.465116,190.963636 C206.26615,144.990909 112.226529,153.831818 51.8992248,213.95 C-17.2997416,282.909091 -17.2997416,394.304545 51.8992248,463.263636 C76.7398794,488.018182 108.677864,503.931818 142.390181,511.004545 L142.390181,601.181818 L35.9302326,601.181818 L35.9302326,671.909091 L142.390181,671.909091 L142.390181,778 L213.36348,778 L213.36348,671.909091 L319.823428,671.909091 L319.823428,601.181818 L213.36348,601.181818 L213.36348,511.004545 C247.075797,503.931818 277.239449,488.018182 303.854436,463.263636 C364.18174,403.145455 371.27907,309.431818 326.920758,240.472727 L444.026701,123.772727 L444.026701,247.545455 L515,247.545455 L515,70.7272727 L515,0 L444.026701,0 Z M252.398794,411.986364 C211.589147,452.654545 144.164513,452.654545 103.354866,411.986364 C62.5452196,371.318182 62.5452196,304.127273 103.354866,263.459091 C144.164513,222.790909 211.589147,222.790909 252.398794,263.459091 C293.208441,304.127273 293.208441,371.318182 252.398794,411.986364 Z" id="Shape"></path>
        </g>
    </g>
</svg>